<svg width="173" height="135" viewBox="0 0 173 135" fill="none" xmlns="http://www.w3.org/2000/svg" id="svg-logo">
<style>
        svg#svg-logo {
            width: var(--step-5);
            height: var(--step-5);
            --logo-fill: var(--header-link);
        }
        #svg-logo path {
            fill: var(--logo-fill);
        }
    </style>
<path d="M12.2835 134.438C9.97795 134.438 7.89921 133.946 6.00945 132.926C4.15748 131.906 2.68346 130.507 1.5874 128.731C0.529134 126.954 0 124.951 0 122.683C0 120.454 0.529134 118.413 1.5874 116.636C2.68346 114.86 4.15748 113.461 6.00945 112.441C7.89921 111.458 9.97795 110.929 12.3213 110.929C14.2866 110.929 16.063 111.307 17.6504 111.987C19.2378 112.668 20.5984 113.65 21.6567 114.973L18.2929 118.072C16.7811 116.296 14.8535 115.427 12.5858 115.427C11.1874 115.427 9.94016 115.729 8.8063 116.334C7.71024 116.976 6.84094 117.808 6.23622 118.942C5.6315 120.038 5.32913 121.285 5.32913 122.683C5.32913 124.082 5.6315 125.367 6.23622 126.463C6.84094 127.559 7.71024 128.428 8.8063 129.033C9.94016 129.638 11.1874 129.94 12.5858 129.94C14.8535 129.94 16.7811 129.071 18.2929 127.257L21.6567 130.394C20.5984 131.717 19.2378 132.699 17.6504 133.38C16.063 134.098 14.2488 134.438 12.2835 134.438ZM40.5543 122.343H45.3543V131.565C42.637 133.395 39.4456 134.393 36.1701 134.438C33.8268 134.438 31.7102 133.946 29.8205 132.926C27.9571 131.953 26.4032 130.478 25.3345 128.668C24.2658 126.858 23.725 124.785 23.7732 122.683C23.7373 120.58 24.2874 118.507 25.3621 116.699C26.4368 114.89 27.9935 113.415 29.8583 112.441C31.748 111.458 33.9024 110.929 36.2835 110.929C38.2488 110.929 40.063 111.269 41.6882 111.95C43.3134 112.63 44.674 113.575 45.7701 114.86L42.4063 117.997C40.7811 116.258 38.8157 115.427 36.548 115.427C35.074 115.427 33.789 115.729 32.6551 116.334C31.5591 116.939 30.6898 117.808 30.0472 118.904C29.4047 120 29.1024 121.247 29.1024 122.683C29.1024 124.082 29.4047 125.367 30.0472 126.463C30.6898 127.559 31.5591 128.428 32.6551 129.033C33.789 129.638 35.0362 129.94 36.4724 129.94C37.9843 129.94 39.3449 129.638 40.5543 128.995V122.343ZM65.7638 129.751V134.06H48.6047V130.62L57.3732 122.381C58.2803 121.474 58.9228 120.718 59.263 120.076C59.5654 119.433 59.7543 118.791 59.7543 118.186C59.7543 117.279 59.4142 116.561 58.8094 116.069C58.2047 115.616 57.2976 115.351 56.0882 115.351C55.1055 115.351 54.1984 115.54 53.4047 115.918C52.611 116.296 51.9307 116.863 51.4016 117.619L47.5843 115.162C48.4535 113.839 49.663 112.819 51.2504 112.063C52.8 111.307 54.5764 110.929 56.5795 110.929C58.2803 110.929 59.7543 111.231 61.0016 111.761C62.2866 112.328 63.2693 113.083 63.9874 114.104C64.6677 115.124 65.0079 116.296 65.0079 117.657C65.0079 118.904 64.7811 120.038 64.252 121.134C63.7228 122.23 62.7402 123.439 61.2283 124.838L56.0126 129.751H65.7638ZM76.7244 111.345V134.06H71.4331V115.54H66.8976V111.345H76.7244ZM108.85 129.827V134.06H91.2756V111.345H108.435V115.54H96.4913V120.491H107.036V124.573H96.4913V129.827H108.85ZM127.37 134.06L121.89 126.161L116.485 134.06H110.438L118.866 122.494L110.891 111.345H116.863L122.079 118.715L127.181 111.345H132.888L124.951 122.306L133.417 134.06H127.37ZM136.214 111.345H141.468V134.06H136.214V111.345ZM167.546 134.06L167.509 120.416L160.819 131.641H158.438L151.786 120.718V134.06H146.872V111.345H151.219L159.723 125.443L168.076 111.345H172.384L172.46 134.06H167.546Z" fill="black"/>
<path d="M129.827 31.3701V27.0614C129.827 12.1323 117.657 0 102.728 0H70.0724C62.8918 -6.98381e-06 56.0048 2.84989 50.9238 7.92381C45.8428 12.9977 42.9833 19.8808 42.9732 27.0614V59.7165C42.9732 74.6457 55.1433 86.8158 70.0724 86.8158H102.728C117.657 86.8158 129.827 74.6457 129.827 59.7165V55.4079H117.619V59.7165C117.619 67.9181 110.929 74.6079 102.728 74.6079H70.0724C66.1261 74.5979 62.3442 73.0258 59.5537 70.2353C56.7632 67.4448 55.1911 63.6629 55.1811 59.7165V27.0614C55.1811 18.8598 61.8709 12.1701 70.0724 12.1701H102.728C110.929 12.1701 117.619 18.8598 117.619 27.0614V31.3701H129.827Z" fill="#698F2B"/>
<path d="M110.627 31.3701V27.0614C110.627 22.715 107.074 19.1622 102.728 19.1622H70.0724C65.726 19.1622 62.211 22.715 62.211 27.0614V59.7165C62.211 64.063 65.726 67.6157 70.0724 67.6157H102.728C107.074 67.6157 110.627 64.063 110.627 59.7165V49.474H110.665V37.3039H80.6551V49.474H98.4189V55.4079H74.3811V31.3701H110.627Z" fill="#698F2B"/>
</svg>
