<svg width="424" height="87" viewBox="0 0 424 87" fill="none" xmlns="http://www.w3.org/2000/svg" id="svg-logo">
<path d="M131.436 65C127.225 65 123.428 64.1013 119.976 62.2347C116.594 60.3682 113.901 57.8103 111.899 54.5611C109.966 51.3119 109 47.6479 109 43.5C109 39.4212 109.966 35.6881 111.899 32.4389C113.901 29.1897 116.594 26.6318 119.976 24.7653C123.428 22.9678 127.225 22 131.505 22C135.095 22 138.339 22.6913 141.239 23.9357C144.138 25.1801 146.623 26.9775 148.556 29.3971L142.412 35.0659C139.651 31.8167 136.13 30.2267 131.988 30.2267C129.434 30.2267 127.156 30.7797 125.085 31.8859C123.083 33.0611 121.495 34.582 120.391 36.6559C119.286 38.6608 118.734 40.9421 118.734 43.5C118.734 46.0579 119.286 48.4084 120.391 50.4132C121.495 52.418 123.083 54.008 125.085 55.1141C127.156 56.2203 129.434 56.7733 131.988 56.7733C136.13 56.7733 139.651 55.1833 142.412 51.865L148.556 57.6029C146.623 60.0225 144.138 61.8199 141.239 63.0643C138.339 64.3778 135.026 65 131.436 65ZM183.073 42.8778H191.84V59.746C186.877 63.0924 181.048 64.9182 175.065 65C170.785 65 166.919 64.1013 163.467 62.2347C160.064 60.4552 157.226 57.7575 155.274 54.4466C153.322 51.1357 152.334 47.3439 152.422 43.5C152.356 39.652 153.361 35.8617 155.324 32.553C157.287 29.2443 160.131 26.5479 163.536 24.7653C166.988 22.9678 170.923 22 175.272 22C178.862 22 182.176 22.6222 185.144 23.8666C188.112 25.1109 190.598 26.8392 192.6 29.1897L186.456 34.9277C183.487 31.7476 179.897 30.2267 175.755 30.2267C173.063 30.2267 170.716 30.7797 168.645 31.8859C166.643 32.992 165.055 34.582 163.882 36.5868C162.708 38.5916 162.156 40.873 162.156 43.5C162.156 46.0579 162.708 48.4084 163.882 50.4132C165.055 52.418 166.643 54.008 168.645 55.1141C170.716 56.2203 172.994 56.7733 175.617 56.7733C178.379 56.7733 180.864 56.2203 183.073 55.045V42.8778ZM229.118 56.4277V64.3087H197.777V58.0177L213.793 42.9469C215.45 41.2878 216.623 39.9051 217.245 38.7299C217.797 37.5547 218.142 36.3794 218.142 35.2733C218.142 33.6141 217.521 32.3006 216.416 31.4019C215.312 30.5723 213.655 30.0884 211.446 30.0884C209.651 30.0884 207.994 30.4341 206.544 31.1254C205.095 31.8167 203.852 32.8537 202.886 34.2363L195.913 29.7428C197.501 27.3232 199.71 25.4566 202.609 24.074C205.44 22.6913 208.684 22 212.343 22C215.45 22 218.142 22.5531 220.42 23.5209C222.767 24.5579 224.562 25.9405 225.874 27.8071C227.116 29.6736 227.738 31.8167 227.738 34.3055C227.738 36.5868 227.323 38.6608 226.357 40.6656C225.391 42.6704 223.596 44.8826 220.834 47.4405L211.308 56.4277H229.118ZM249.138 22.7605V64.3087H239.473V30.4341H231.189V22.7605H249.138ZM307.817 56.5659V64.3087H275.716V22.7605H307.057V30.4341H285.243V39.4904H304.503V46.9566H285.243V56.5659H307.817ZM341.643 64.3087L331.633 49.8601L321.761 64.3087H310.716L326.11 43.1543L311.544 22.7605H322.452L331.978 36.2412L341.298 22.7605H351.722L337.225 42.8087L352.688 64.3087H341.643ZM357.797 22.7605H367.392V64.3087H357.797V22.7605ZM415.026 64.3087L414.957 39.3521L402.738 59.8842H398.389L386.239 39.9051V64.3087H377.264V22.7605H385.203L400.736 48.5466L415.992 22.7605H423.862L424 64.3087H415.026Z" fill="black"/>
<path d="M86.8535 31.3701V27.0614C86.8535 12.1323 74.6835 0 59.7543 0H27.0992C19.9186 -6.98381e-06 13.0315 2.84989 7.95052 7.92381C2.86952 12.9977 0.0100148 19.8808 0 27.0614V59.7165C0 74.6457 12.1701 86.8158 27.0992 86.8158H59.7543C74.6835 86.8158 86.8535 74.6457 86.8535 59.7165V55.4079H74.6457V59.7165C74.6457 67.9181 67.9559 74.6079 59.7543 74.6079H27.0992C23.1529 74.5979 19.371 73.0258 16.5805 70.2353C13.79 67.4448 12.2179 63.6629 12.2079 59.7165V27.0614C12.2079 18.8598 18.8976 12.1701 27.0992 12.1701H59.7543C67.9559 12.1701 74.6457 18.8598 74.6457 27.0614V31.3701H86.8535Z" fill="#698F2B"/>
<path d="M67.6535 31.2079V26.8992C67.6535 22.5528 64.1008 19 59.7543 19H27.0992C22.7528 19 19.2378 22.5528 19.2378 26.8992V59.5543C19.2378 63.9008 22.7528 67.4535 27.0992 67.4535H59.7543C64.1008 67.4535 67.6535 63.9008 67.6535 59.5543V49.3118H67.6913V37.1417H37.6819V49.3118H55.4457V55.2457H31.4079V31.2079H67.6535Z" fill="#698F2B"/>
</svg>
